<mxfile host="app.diagrams.net" agent="Mozilla/5.0 (Windows NT 10.0; Win64; x64) AppleWebKit/537.36 (KHTML, like Gecko) Chrome/138.0.0.0 Safari/537.36 Edg/138.0.0.0" version="27.2.0">
  <diagram name="Page-1" id="2YBvvXClWsGukQMizWep">
    <mxGraphModel dx="2350" dy="1205" grid="1" gridSize="10" guides="1" tooltips="1" connect="1" arrows="1" fold="1" page="1" pageScale="1" pageWidth="850" pageHeight="1100" math="0" shadow="0" adaptiveColors="none">
      <root>
        <mxCell id="0" />
        <mxCell id="1" parent="0" />
        <mxCell id="-DnV1LJgiexcbT4N5NTQ-1" style="rounded=0;orthogonalLoop=1;jettySize=auto;html=1;dashed=1;endArrow=none;endFill=0;textShadow=0;labelBackgroundColor=light-dark(default, #ffffff);" parent="1" source="-DnV1LJgiexcbT4N5NTQ-2" target="-DnV1LJgiexcbT4N5NTQ-3" edge="1">
          <mxGeometry relative="1" as="geometry" />
        </mxCell>
        <mxCell id="-DnV1LJgiexcbT4N5NTQ-2" value="" style="html=1;points=[[0,0,0,0,5],[0,1,0,0,-5],[1,0,0,0,5],[1,1,0,0,-5]];perimeter=orthogonalPerimeter;outlineConnect=0;targetShapes=umlLifeline;portConstraint=eastwest;newEdgeStyle={&quot;curved&quot;:0,&quot;rounded&quot;:0};" parent="1" vertex="1">
          <mxGeometry x="270" y="248" width="10" height="312" as="geometry" />
        </mxCell>
        <mxCell id="-DnV1LJgiexcbT4N5NTQ-3" value="&lt;span style=&quot;&quot;&gt;:Nutricionista&lt;/span&gt;" style="shape=umlActor;verticalLabelPosition=bottom;verticalAlign=top;html=1;labelBackgroundColor=none;labelBorderColor=none;textShadow=0;whiteSpace=wrap;" parent="1" vertex="1">
          <mxGeometry x="260" y="110" width="30" height="60" as="geometry" />
        </mxCell>
        <mxCell id="-DnV1LJgiexcbT4N5NTQ-4" value=":VisaoDieta" style="shape=umlBoundary;whiteSpace=wrap;html=1;" parent="1" vertex="1">
          <mxGeometry x="470" y="100" width="100" height="80" as="geometry" />
        </mxCell>
        <mxCell id="-DnV1LJgiexcbT4N5NTQ-5" value="" style="html=1;points=[[0,0,0,0,5],[0,1,0,0,-5],[1,0,0,0,5],[1,1,0,0,-5]];perimeter=orthogonalPerimeter;outlineConnect=0;targetShapes=umlLifeline;portConstraint=eastwest;newEdgeStyle={&quot;curved&quot;:0,&quot;rounded&quot;:0};" parent="1" vertex="1">
          <mxGeometry x="515" y="248" width="10" height="80" as="geometry" />
        </mxCell>
        <mxCell id="-DnV1LJgiexcbT4N5NTQ-6" value="" style="orthogonalLoop=1;jettySize=auto;html=1;rounded=0;endArrow=none;endFill=0;dashed=1;" parent="1" source="-DnV1LJgiexcbT4N5NTQ-4" target="-DnV1LJgiexcbT4N5NTQ-5" edge="1">
          <mxGeometry width="80" relative="1" as="geometry">
            <mxPoint x="510" y="170" as="sourcePoint" />
            <mxPoint x="590" y="170" as="targetPoint" />
          </mxGeometry>
        </mxCell>
        <mxCell id="-DnV1LJgiexcbT4N5NTQ-7" value="Controle&lt;div&gt;Dieta&lt;/div&gt;" style="ellipse;shape=umlControl;whiteSpace=wrap;html=1;" parent="1" vertex="1">
          <mxGeometry x="690" y="100" width="70" height="80" as="geometry" />
        </mxCell>
        <mxCell id="-DnV1LJgiexcbT4N5NTQ-8" value="Dieta" style="ellipse;shape=umlEntity;whiteSpace=wrap;html=1;" parent="1" vertex="1">
          <mxGeometry x="860" y="110" width="80" height="80" as="geometry" />
        </mxCell>
        <mxCell id="-DnV1LJgiexcbT4N5NTQ-9" value="" style="html=1;points=[[0,0,0,0,5],[0,1,0,0,-5],[1,0,0,0,5],[1,1,0,0,-5]];perimeter=orthogonalPerimeter;outlineConnect=0;targetShapes=umlLifeline;portConstraint=eastwest;newEdgeStyle={&quot;curved&quot;:0,&quot;rounded&quot;:0};" parent="1" vertex="1">
          <mxGeometry x="720" y="248" width="10" height="80" as="geometry" />
        </mxCell>
        <mxCell id="-DnV1LJgiexcbT4N5NTQ-10" value="" style="orthogonalLoop=1;jettySize=auto;html=1;rounded=0;endArrow=none;endFill=0;dashed=1;" parent="1" source="-DnV1LJgiexcbT4N5NTQ-7" target="-DnV1LJgiexcbT4N5NTQ-9" edge="1">
          <mxGeometry width="80" relative="1" as="geometry">
            <mxPoint x="670" y="200" as="sourcePoint" />
            <mxPoint x="750" y="200" as="targetPoint" />
          </mxGeometry>
        </mxCell>
        <mxCell id="-DnV1LJgiexcbT4N5NTQ-11" value="" style="html=1;points=[[0,0,0,0,5],[0,1,0,0,-5],[1,0,0,0,5],[1,1,0,0,-5]];perimeter=orthogonalPerimeter;outlineConnect=0;targetShapes=umlLifeline;portConstraint=eastwest;newEdgeStyle={&quot;curved&quot;:0,&quot;rounded&quot;:0};" parent="1" vertex="1">
          <mxGeometry x="895" y="250" width="10" height="80" as="geometry" />
        </mxCell>
        <mxCell id="-DnV1LJgiexcbT4N5NTQ-12" value="" style="edgeStyle=none;orthogonalLoop=1;jettySize=auto;html=1;rounded=0;dashed=1;endArrow=none;endFill=0;" parent="1" source="-DnV1LJgiexcbT4N5NTQ-11" target="-DnV1LJgiexcbT4N5NTQ-8" edge="1">
          <mxGeometry width="80" relative="1" as="geometry">
            <mxPoint x="610" y="310" as="sourcePoint" />
            <mxPoint x="690" y="310" as="targetPoint" />
            <Array as="points" />
          </mxGeometry>
        </mxCell>
        <mxCell id="-DnV1LJgiexcbT4N5NTQ-13" value="" style="edgeStyle=none;orthogonalLoop=1;jettySize=auto;html=1;rounded=0;entryX=0;entryY=0;entryDx=0;entryDy=5;entryPerimeter=0;exitX=1;exitY=0;exitDx=0;exitDy=5;exitPerimeter=0;endArrow=open;endFill=0;" parent="1" source="-DnV1LJgiexcbT4N5NTQ-2" target="-DnV1LJgiexcbT4N5NTQ-5" edge="1">
          <mxGeometry width="80" relative="1" as="geometry">
            <mxPoint x="430" y="290" as="sourcePoint" />
            <mxPoint x="510" y="290" as="targetPoint" />
            <Array as="points" />
          </mxGeometry>
        </mxCell>
        <mxCell id="-DnV1LJgiexcbT4N5NTQ-14" value="Informar Dieta" style="edgeLabel;html=1;align=center;verticalAlign=middle;resizable=0;points=[];" parent="-DnV1LJgiexcbT4N5NTQ-13" vertex="1" connectable="0">
          <mxGeometry x="-0.2477" relative="1" as="geometry">
            <mxPoint x="17" as="offset" />
          </mxGeometry>
        </mxCell>
        <mxCell id="-DnV1LJgiexcbT4N5NTQ-15" value="" style="edgeStyle=none;orthogonalLoop=1;jettySize=auto;html=1;rounded=0;entryX=0;entryY=0;entryDx=0;entryDy=5;entryPerimeter=0;exitX=1;exitY=0;exitDx=0;exitDy=5;exitPerimeter=0;endArrow=open;endFill=0;" parent="1" source="-DnV1LJgiexcbT4N5NTQ-5" target="-DnV1LJgiexcbT4N5NTQ-9" edge="1">
          <mxGeometry width="80" relative="1" as="geometry">
            <mxPoint x="535" y="262" as="sourcePoint" />
            <mxPoint x="690" y="260" as="targetPoint" />
            <Array as="points" />
          </mxGeometry>
        </mxCell>
        <mxCell id="-DnV1LJgiexcbT4N5NTQ-16" value="Dieta Informada" style="edgeLabel;html=1;align=center;verticalAlign=middle;resizable=0;points=[];" parent="-DnV1LJgiexcbT4N5NTQ-15" vertex="1" connectable="0">
          <mxGeometry x="-0.2477" relative="1" as="geometry">
            <mxPoint x="30" as="offset" />
          </mxGeometry>
        </mxCell>
        <mxCell id="-DnV1LJgiexcbT4N5NTQ-17" value="" style="edgeStyle=none;orthogonalLoop=1;jettySize=auto;html=1;rounded=0;entryX=0;entryY=0;entryDx=0;entryDy=5;entryPerimeter=0;exitX=1;exitY=0;exitDx=0;exitDy=5;exitPerimeter=0;endArrow=open;endFill=0;" parent="1" source="-DnV1LJgiexcbT4N5NTQ-9" target="-DnV1LJgiexcbT4N5NTQ-11" edge="1">
          <mxGeometry width="80" relative="1" as="geometry">
            <mxPoint x="740" y="280" as="sourcePoint" />
            <mxPoint x="935" y="280" as="targetPoint" />
            <Array as="points" />
          </mxGeometry>
        </mxCell>
        <mxCell id="-DnV1LJgiexcbT4N5NTQ-18" value="consultarDieta(String)" style="edgeLabel;html=1;align=center;verticalAlign=middle;resizable=0;points=[];" parent="-DnV1LJgiexcbT4N5NTQ-17" vertex="1" connectable="0">
          <mxGeometry x="-0.2477" relative="1" as="geometry">
            <mxPoint x="22" as="offset" />
          </mxGeometry>
        </mxCell>
        <mxCell id="-DnV1LJgiexcbT4N5NTQ-19" value="" style="edgeStyle=none;orthogonalLoop=1;jettySize=auto;html=1;rounded=0;entryX=1;entryY=1;entryDx=0;entryDy=-5;entryPerimeter=0;exitX=0;exitY=1;exitDx=0;exitDy=-5;exitPerimeter=0;endArrow=open;endFill=0;dashed=1;" parent="1" source="-DnV1LJgiexcbT4N5NTQ-11" target="-DnV1LJgiexcbT4N5NTQ-9" edge="1">
          <mxGeometry width="80" relative="1" as="geometry">
            <mxPoint x="790" y="290" as="sourcePoint" />
            <mxPoint x="870" y="290" as="targetPoint" />
            <Array as="points" />
          </mxGeometry>
        </mxCell>
        <mxCell id="-DnV1LJgiexcbT4N5NTQ-20" value="verdadeiro: boolean" style="edgeLabel;html=1;align=center;verticalAlign=middle;resizable=0;points=[];" parent="-DnV1LJgiexcbT4N5NTQ-19" vertex="1" connectable="0">
          <mxGeometry x="0.1718" y="2" relative="1" as="geometry">
            <mxPoint x="15" y="-3" as="offset" />
          </mxGeometry>
        </mxCell>
        <mxCell id="-DnV1LJgiexcbT4N5NTQ-21" value="" style="edgeStyle=none;orthogonalLoop=1;jettySize=auto;html=1;rounded=0;entryX=1;entryY=1;entryDx=0;entryDy=-5;entryPerimeter=0;exitX=0;exitY=1;exitDx=0;exitDy=-5;exitPerimeter=0;endArrow=box;endFill=0;" parent="1" source="-DnV1LJgiexcbT4N5NTQ-9" target="-DnV1LJgiexcbT4N5NTQ-5" edge="1">
          <mxGeometry width="80" relative="1" as="geometry">
            <mxPoint x="535" y="263" as="sourcePoint" />
            <mxPoint x="730" y="263" as="targetPoint" />
            <Array as="points" />
          </mxGeometry>
        </mxCell>
        <mxCell id="-DnV1LJgiexcbT4N5NTQ-22" value="Solicitar Dados Paciente" style="edgeLabel;html=1;align=center;verticalAlign=middle;resizable=0;points=[];" parent="-DnV1LJgiexcbT4N5NTQ-21" vertex="1" connectable="0">
          <mxGeometry x="-0.2477" relative="1" as="geometry">
            <mxPoint x="-20" as="offset" />
          </mxGeometry>
        </mxCell>
        <mxCell id="-DnV1LJgiexcbT4N5NTQ-23" value="" style="html=1;points=[[0,0,0,0,5],[0,1,0,0,-5],[1,0,0,0,5],[1,1,0,0,-5]];perimeter=orthogonalPerimeter;outlineConnect=0;targetShapes=umlLifeline;portConstraint=eastwest;newEdgeStyle={&quot;curved&quot;:0,&quot;rounded&quot;:0};" parent="1" vertex="1">
          <mxGeometry x="515" y="370" width="10" height="80" as="geometry" />
        </mxCell>
        <mxCell id="-DnV1LJgiexcbT4N5NTQ-24" value="" style="html=1;points=[[0,0,0,0,5],[0,1,0,0,-5],[1,0,0,0,5],[1,1,0,0,-5]];perimeter=orthogonalPerimeter;outlineConnect=0;targetShapes=umlLifeline;portConstraint=eastwest;newEdgeStyle={&quot;curved&quot;:0,&quot;rounded&quot;:0};" parent="1" vertex="1">
          <mxGeometry x="720" y="370" width="10" height="80" as="geometry" />
        </mxCell>
        <mxCell id="-DnV1LJgiexcbT4N5NTQ-25" value="" style="html=1;points=[[0,0,0,0,5],[0,1,0,0,-5],[1,0,0,0,5],[1,1,0,0,-5]];perimeter=orthogonalPerimeter;outlineConnect=0;targetShapes=umlLifeline;portConstraint=eastwest;newEdgeStyle={&quot;curved&quot;:0,&quot;rounded&quot;:0};" parent="1" vertex="1">
          <mxGeometry x="895" y="372" width="10" height="80" as="geometry" />
        </mxCell>
        <mxCell id="-DnV1LJgiexcbT4N5NTQ-26" value="" style="edgeStyle=none;orthogonalLoop=1;jettySize=auto;html=1;rounded=0;entryX=0;entryY=0;entryDx=0;entryDy=5;entryPerimeter=0;exitX=1;exitY=0;exitDx=0;exitDy=5;exitPerimeter=0;endArrow=open;endFill=0;" parent="1" source="-DnV1LJgiexcbT4N5NTQ-23" target="-DnV1LJgiexcbT4N5NTQ-24" edge="1">
          <mxGeometry width="80" relative="1" as="geometry">
            <mxPoint x="535" y="384" as="sourcePoint" />
            <mxPoint x="690" y="382" as="targetPoint" />
            <Array as="points" />
          </mxGeometry>
        </mxCell>
        <mxCell id="-DnV1LJgiexcbT4N5NTQ-27" value="Paciente Informado" style="edgeLabel;html=1;align=center;verticalAlign=middle;resizable=0;points=[];" parent="-DnV1LJgiexcbT4N5NTQ-26" vertex="1" connectable="0">
          <mxGeometry x="-0.2477" relative="1" as="geometry">
            <mxPoint x="30" as="offset" />
          </mxGeometry>
        </mxCell>
        <mxCell id="-DnV1LJgiexcbT4N5NTQ-28" value="" style="edgeStyle=none;orthogonalLoop=1;jettySize=auto;html=1;rounded=0;entryX=0;entryY=0;entryDx=0;entryDy=5;entryPerimeter=0;exitX=1;exitY=0;exitDx=0;exitDy=5;exitPerimeter=0;endArrow=open;endFill=0;" parent="1" source="-DnV1LJgiexcbT4N5NTQ-24" target="-DnV1LJgiexcbT4N5NTQ-25" edge="1">
          <mxGeometry width="80" relative="1" as="geometry">
            <mxPoint x="740" y="402" as="sourcePoint" />
            <mxPoint x="935" y="402" as="targetPoint" />
            <Array as="points" />
          </mxGeometry>
        </mxCell>
        <mxCell id="-DnV1LJgiexcbT4N5NTQ-29" value="consultarPaciente(String)" style="edgeLabel;html=1;align=center;verticalAlign=middle;resizable=0;points=[];" parent="-DnV1LJgiexcbT4N5NTQ-28" vertex="1" connectable="0">
          <mxGeometry x="-0.2477" relative="1" as="geometry">
            <mxPoint x="22" as="offset" />
          </mxGeometry>
        </mxCell>
        <mxCell id="-DnV1LJgiexcbT4N5NTQ-30" value="" style="edgeStyle=none;orthogonalLoop=1;jettySize=auto;html=1;rounded=0;entryX=1;entryY=1;entryDx=0;entryDy=-5;entryPerimeter=0;exitX=0;exitY=1;exitDx=0;exitDy=-5;exitPerimeter=0;endArrow=open;endFill=0;dashed=1;" parent="1" source="-DnV1LJgiexcbT4N5NTQ-25" target="-DnV1LJgiexcbT4N5NTQ-24" edge="1">
          <mxGeometry width="80" relative="1" as="geometry">
            <mxPoint x="790" y="412" as="sourcePoint" />
            <mxPoint x="870" y="412" as="targetPoint" />
            <Array as="points" />
          </mxGeometry>
        </mxCell>
        <mxCell id="-DnV1LJgiexcbT4N5NTQ-31" value="verdadeiro: boolean" style="edgeLabel;html=1;align=center;verticalAlign=middle;resizable=0;points=[];" parent="-DnV1LJgiexcbT4N5NTQ-30" vertex="1" connectable="0">
          <mxGeometry x="0.1718" y="2" relative="1" as="geometry">
            <mxPoint x="15" y="-3" as="offset" />
          </mxGeometry>
        </mxCell>
        <mxCell id="-DnV1LJgiexcbT4N5NTQ-32" value="" style="edgeStyle=none;orthogonalLoop=1;jettySize=auto;html=1;rounded=0;entryX=1;entryY=1;entryDx=0;entryDy=-5;entryPerimeter=0;exitX=0;exitY=1;exitDx=0;exitDy=-5;exitPerimeter=0;endArrow=box;endFill=0;" parent="1" source="-DnV1LJgiexcbT4N5NTQ-24" target="-DnV1LJgiexcbT4N5NTQ-23" edge="1">
          <mxGeometry width="80" relative="1" as="geometry">
            <mxPoint x="535" y="385" as="sourcePoint" />
            <mxPoint x="730" y="385" as="targetPoint" />
            <Array as="points" />
          </mxGeometry>
        </mxCell>
        <mxCell id="-DnV1LJgiexcbT4N5NTQ-33" value="Solicitar Confirmação" style="edgeLabel;html=1;align=center;verticalAlign=middle;resizable=0;points=[];" parent="-DnV1LJgiexcbT4N5NTQ-32" vertex="1" connectable="0">
          <mxGeometry x="-0.2477" relative="1" as="geometry">
            <mxPoint x="-20" as="offset" />
          </mxGeometry>
        </mxCell>
        <mxCell id="-DnV1LJgiexcbT4N5NTQ-34" value="" style="edgeStyle=none;orthogonalLoop=1;jettySize=auto;html=1;rounded=0;entryX=0;entryY=0;entryDx=0;entryDy=5;entryPerimeter=0;endArrow=open;endFill=0;" parent="1" source="-DnV1LJgiexcbT4N5NTQ-2" target="-DnV1LJgiexcbT4N5NTQ-23" edge="1">
          <mxGeometry width="80" relative="1" as="geometry">
            <mxPoint x="370" y="263" as="sourcePoint" />
            <mxPoint x="525" y="263" as="targetPoint" />
            <Array as="points" />
          </mxGeometry>
        </mxCell>
        <mxCell id="-DnV1LJgiexcbT4N5NTQ-35" value="Informar Paciente" style="edgeLabel;html=1;align=center;verticalAlign=middle;resizable=0;points=[];" parent="-DnV1LJgiexcbT4N5NTQ-34" vertex="1" connectable="0">
          <mxGeometry x="-0.2477" relative="1" as="geometry">
            <mxPoint x="17" as="offset" />
          </mxGeometry>
        </mxCell>
        <mxCell id="-DnV1LJgiexcbT4N5NTQ-36" value="" style="edgeStyle=none;orthogonalLoop=1;jettySize=auto;html=1;rounded=0;entryX=0;entryY=0;entryDx=0;entryDy=5;entryPerimeter=0;exitX=1;exitY=0;exitDx=0;exitDy=5;exitPerimeter=0;endArrow=open;endFill=0;" parent="1" source="-DnV1LJgiexcbT4N5NTQ-46" target="-DnV1LJgiexcbT4N5NTQ-47" edge="1">
          <mxGeometry width="80" relative="1" as="geometry">
            <mxPoint x="535" y="504" as="sourcePoint" />
            <mxPoint x="690" y="502" as="targetPoint" />
            <Array as="points" />
          </mxGeometry>
        </mxCell>
        <mxCell id="-DnV1LJgiexcbT4N5NTQ-37" value="Confirmação Informada" style="edgeLabel;html=1;align=center;verticalAlign=middle;resizable=0;points=[];" parent="-DnV1LJgiexcbT4N5NTQ-36" vertex="1" connectable="0">
          <mxGeometry x="-0.2477" relative="1" as="geometry">
            <mxPoint x="30" as="offset" />
          </mxGeometry>
        </mxCell>
        <mxCell id="-DnV1LJgiexcbT4N5NTQ-38" value="" style="edgeStyle=none;orthogonalLoop=1;jettySize=auto;html=1;rounded=0;entryX=0;entryY=0;entryDx=0;entryDy=5;entryPerimeter=0;exitX=1;exitY=0;exitDx=0;exitDy=5;exitPerimeter=0;endArrow=open;endFill=0;" parent="1" source="-DnV1LJgiexcbT4N5NTQ-47" target="-DnV1LJgiexcbT4N5NTQ-48" edge="1">
          <mxGeometry width="80" relative="1" as="geometry">
            <mxPoint x="740" y="522" as="sourcePoint" />
            <mxPoint x="935" y="522" as="targetPoint" />
            <Array as="points" />
          </mxGeometry>
        </mxCell>
        <mxCell id="-DnV1LJgiexcbT4N5NTQ-39" value="prescreverDieta(String)" style="edgeLabel;html=1;align=center;verticalAlign=middle;resizable=0;points=[];" parent="-DnV1LJgiexcbT4N5NTQ-38" vertex="1" connectable="0">
          <mxGeometry x="-0.2477" relative="1" as="geometry">
            <mxPoint x="22" as="offset" />
          </mxGeometry>
        </mxCell>
        <mxCell id="-DnV1LJgiexcbT4N5NTQ-40" value="" style="edgeStyle=none;orthogonalLoop=1;jettySize=auto;html=1;rounded=0;entryX=1;entryY=1;entryDx=0;entryDy=-5;entryPerimeter=0;exitX=0;exitY=1;exitDx=0;exitDy=-5;exitPerimeter=0;endArrow=open;endFill=0;dashed=1;" parent="1" source="-DnV1LJgiexcbT4N5NTQ-48" target="-DnV1LJgiexcbT4N5NTQ-47" edge="1">
          <mxGeometry width="80" relative="1" as="geometry">
            <mxPoint x="790" y="532" as="sourcePoint" />
            <mxPoint x="870" y="532" as="targetPoint" />
            <Array as="points" />
          </mxGeometry>
        </mxCell>
        <mxCell id="-DnV1LJgiexcbT4N5NTQ-41" value="verdadeiro: boolean" style="edgeLabel;html=1;align=center;verticalAlign=middle;resizable=0;points=[];" parent="-DnV1LJgiexcbT4N5NTQ-40" vertex="1" connectable="0">
          <mxGeometry x="0.1718" y="2" relative="1" as="geometry">
            <mxPoint x="15" y="-3" as="offset" />
          </mxGeometry>
        </mxCell>
        <mxCell id="-DnV1LJgiexcbT4N5NTQ-42" value="" style="edgeStyle=none;orthogonalLoop=1;jettySize=auto;html=1;rounded=0;entryX=1;entryY=1;entryDx=0;entryDy=-5;entryPerimeter=0;exitX=0;exitY=1;exitDx=0;exitDy=-5;exitPerimeter=0;endArrow=box;endFill=0;" parent="1" source="-DnV1LJgiexcbT4N5NTQ-47" target="-DnV1LJgiexcbT4N5NTQ-46" edge="1">
          <mxGeometry width="80" relative="1" as="geometry">
            <mxPoint x="535" y="505" as="sourcePoint" />
            <mxPoint x="730" y="505" as="targetPoint" />
            <Array as="points" />
          </mxGeometry>
        </mxCell>
        <mxCell id="-DnV1LJgiexcbT4N5NTQ-43" value="Informar Dieta" style="edgeLabel;html=1;align=center;verticalAlign=middle;resizable=0;points=[];" parent="-DnV1LJgiexcbT4N5NTQ-42" vertex="1" connectable="0">
          <mxGeometry x="-0.2477" relative="1" as="geometry">
            <mxPoint x="-20" as="offset" />
          </mxGeometry>
        </mxCell>
        <mxCell id="-DnV1LJgiexcbT4N5NTQ-44" value="" style="edgeStyle=none;orthogonalLoop=1;jettySize=auto;html=1;rounded=0;entryX=0;entryY=0;entryDx=0;entryDy=5;entryPerimeter=0;endArrow=open;endFill=0;" parent="1" source="-DnV1LJgiexcbT4N5NTQ-2" target="-DnV1LJgiexcbT4N5NTQ-46" edge="1">
          <mxGeometry width="80" relative="1" as="geometry">
            <mxPoint x="360" y="495" as="sourcePoint" />
            <mxPoint x="525" y="383" as="targetPoint" />
            <Array as="points" />
          </mxGeometry>
        </mxCell>
        <mxCell id="-DnV1LJgiexcbT4N5NTQ-45" value="Informar Confirmação e Prescrever Dieta" style="edgeLabel;html=1;align=center;verticalAlign=middle;resizable=0;points=[];" parent="-DnV1LJgiexcbT4N5NTQ-44" vertex="1" connectable="0">
          <mxGeometry x="-0.2477" relative="1" as="geometry">
            <mxPoint x="28" as="offset" />
          </mxGeometry>
        </mxCell>
        <mxCell id="-DnV1LJgiexcbT4N5NTQ-46" value="" style="html=1;points=[[0,0,0,0,5],[0,1,0,0,-5],[1,0,0,0,5],[1,1,0,0,-5]];perimeter=orthogonalPerimeter;outlineConnect=0;targetShapes=umlLifeline;portConstraint=eastwest;newEdgeStyle={&quot;curved&quot;:0,&quot;rounded&quot;:0};" parent="1" vertex="1">
          <mxGeometry x="515" y="490" width="10" height="80" as="geometry" />
        </mxCell>
        <mxCell id="-DnV1LJgiexcbT4N5NTQ-47" value="" style="html=1;points=[[0,0,0,0,5],[0,1,0,0,-5],[1,0,0,0,5],[1,1,0,0,-5]];perimeter=orthogonalPerimeter;outlineConnect=0;targetShapes=umlLifeline;portConstraint=eastwest;newEdgeStyle={&quot;curved&quot;:0,&quot;rounded&quot;:0};" parent="1" vertex="1">
          <mxGeometry x="720" y="490" width="10" height="80" as="geometry" />
        </mxCell>
        <mxCell id="-DnV1LJgiexcbT4N5NTQ-48" value="" style="html=1;points=[[0,0,0,0,5],[0,1,0,0,-5],[1,0,0,0,5],[1,1,0,0,-5]];perimeter=orthogonalPerimeter;outlineConnect=0;targetShapes=umlLifeline;portConstraint=eastwest;newEdgeStyle={&quot;curved&quot;:0,&quot;rounded&quot;:0};" parent="1" vertex="1">
          <mxGeometry x="895" y="492" width="10" height="80" as="geometry" />
        </mxCell>
        <mxCell id="-DnV1LJgiexcbT4N5NTQ-49" value="" style="orthogonalLoop=1;jettySize=auto;html=1;rounded=0;endArrow=none;endFill=0;dashed=1;" parent="1" target="-DnV1LJgiexcbT4N5NTQ-23" edge="1">
          <mxGeometry width="80" relative="1" as="geometry">
            <mxPoint x="520" y="330" as="sourcePoint" />
            <mxPoint x="530" y="428" as="targetPoint" />
          </mxGeometry>
        </mxCell>
        <mxCell id="-DnV1LJgiexcbT4N5NTQ-50" value="" style="orthogonalLoop=1;jettySize=auto;html=1;rounded=0;endArrow=none;endFill=0;dashed=1;" parent="1" source="-DnV1LJgiexcbT4N5NTQ-23" target="-DnV1LJgiexcbT4N5NTQ-46" edge="1">
          <mxGeometry width="80" relative="1" as="geometry">
            <mxPoint x="530" y="340" as="sourcePoint" />
            <mxPoint x="530" y="390" as="targetPoint" />
          </mxGeometry>
        </mxCell>
        <mxCell id="-DnV1LJgiexcbT4N5NTQ-51" value="" style="orthogonalLoop=1;jettySize=auto;html=1;rounded=0;endArrow=none;endFill=0;dashed=1;" parent="1" source="-DnV1LJgiexcbT4N5NTQ-9" target="-DnV1LJgiexcbT4N5NTQ-24" edge="1">
          <mxGeometry width="80" relative="1" as="geometry">
            <mxPoint x="530" y="460" as="sourcePoint" />
            <mxPoint x="530" y="500" as="targetPoint" />
          </mxGeometry>
        </mxCell>
        <mxCell id="-DnV1LJgiexcbT4N5NTQ-52" value="" style="orthogonalLoop=1;jettySize=auto;html=1;rounded=0;endArrow=none;endFill=0;dashed=1;" parent="1" source="-DnV1LJgiexcbT4N5NTQ-24" target="-DnV1LJgiexcbT4N5NTQ-47" edge="1">
          <mxGeometry width="80" relative="1" as="geometry">
            <mxPoint x="735" y="338" as="sourcePoint" />
            <mxPoint x="735" y="380" as="targetPoint" />
          </mxGeometry>
        </mxCell>
        <mxCell id="-DnV1LJgiexcbT4N5NTQ-53" value="" style="orthogonalLoop=1;jettySize=auto;html=1;rounded=0;endArrow=none;endFill=0;dashed=1;" parent="1" source="-DnV1LJgiexcbT4N5NTQ-11" target="-DnV1LJgiexcbT4N5NTQ-25" edge="1">
          <mxGeometry width="80" relative="1" as="geometry">
            <mxPoint x="735" y="460" as="sourcePoint" />
            <mxPoint x="735" y="500" as="targetPoint" />
          </mxGeometry>
        </mxCell>
        <mxCell id="-DnV1LJgiexcbT4N5NTQ-54" value="" style="orthogonalLoop=1;jettySize=auto;html=1;rounded=0;endArrow=none;endFill=0;dashed=1;" parent="1" source="-DnV1LJgiexcbT4N5NTQ-25" target="-DnV1LJgiexcbT4N5NTQ-48" edge="1">
          <mxGeometry width="80" relative="1" as="geometry">
            <mxPoint x="910" y="340" as="sourcePoint" />
            <mxPoint x="910" y="382" as="targetPoint" />
          </mxGeometry>
        </mxCell>
        <mxCell id="-DnV1LJgiexcbT4N5NTQ-55" value="Ref" style="shape=umlFrame;whiteSpace=wrap;html=1;pointerEvents=0;recursiveResize=0;container=1;collapsible=0;width=50;" parent="1" vertex="1">
          <mxGeometry x="659" y="680" width="260" height="120" as="geometry" />
        </mxCell>
        <mxCell id="-DnV1LJgiexcbT4N5NTQ-56" value="Registar Dieta" style="text;align=center;html=1;" parent="-DnV1LJgiexcbT4N5NTQ-55" vertex="1">
          <mxGeometry width="100" height="20" relative="1" as="geometry">
            <mxPoint x="60" y="50" as="offset" />
          </mxGeometry>
        </mxCell>
        <mxCell id="-DnV1LJgiexcbT4N5NTQ-57" value="" style="orthogonalLoop=1;jettySize=auto;html=1;rounded=0;endArrow=none;endFill=0;dashed=1;entryX=0.257;entryY=0.037;entryDx=0;entryDy=0;entryPerimeter=0;" parent="1" source="-DnV1LJgiexcbT4N5NTQ-47" target="-DnV1LJgiexcbT4N5NTQ-55" edge="1">
          <mxGeometry width="80" relative="1" as="geometry">
            <mxPoint x="735" y="460" as="sourcePoint" />
            <mxPoint x="735" y="500" as="targetPoint" />
          </mxGeometry>
        </mxCell>
        <mxCell id="-DnV1LJgiexcbT4N5NTQ-58" value="" style="orthogonalLoop=1;jettySize=auto;html=1;rounded=0;endArrow=none;endFill=0;dashed=1;entryX=0.929;entryY=-0.008;entryDx=0;entryDy=0;entryPerimeter=0;" parent="1" source="-DnV1LJgiexcbT4N5NTQ-48" target="-DnV1LJgiexcbT4N5NTQ-55" edge="1">
          <mxGeometry width="80" relative="1" as="geometry">
            <mxPoint x="736" y="580" as="sourcePoint" />
            <mxPoint x="736" y="640" as="targetPoint" />
          </mxGeometry>
        </mxCell>
        <mxCell id="-DnV1LJgiexcbT4N5NTQ-59" value="Diagrama de Sequência de Dieta" style="shape=umlFrame;whiteSpace=wrap;html=1;pointerEvents=0;recursiveResize=0;container=1;collapsible=0;width=330;height=30;" parent="1" vertex="1">
          <mxGeometry x="80" width="1010" height="920" as="geometry" />
        </mxCell>
        <mxCell id="-DnV1LJgiexcbT4N5NTQ-60" value="" style="shape=umlDestroy;html=1;" parent="-DnV1LJgiexcbT4N5NTQ-59" vertex="1">
          <mxGeometry x="694" y="860" width="30" height="30" as="geometry" />
        </mxCell>
        <mxCell id="-DnV1LJgiexcbT4N5NTQ-61" value="" style="orthogonalLoop=1;jettySize=auto;html=1;rounded=0;endArrow=none;endFill=0;dashed=1;exitX=0.498;exitY=1.011;exitDx=0;exitDy=0;exitPerimeter=0;" parent="1" source="-DnV1LJgiexcbT4N5NTQ-55" target="-DnV1LJgiexcbT4N5NTQ-60" edge="1">
          <mxGeometry width="80" relative="1" as="geometry">
            <mxPoint x="860" y="820" as="sourcePoint" />
            <mxPoint x="860" y="927" as="targetPoint" />
          </mxGeometry>
        </mxCell>
      </root>
    </mxGraphModel>
  </diagram>
</mxfile>
